<svg version="1.1" id="Layer_1" xmlns="http://www.w3.org/2000/svg" xmlns:xlink="http://www.w3.org/1999/xlink" x="0px" y="0px" viewBox="0 0 313.1 277.6" xml:space="preserve" width="406" height="306" class="illustration styles_illustrationTablet__1DWOa"><style type="text/css">
	.st0{opacity:0.24;fill:#68E1FD;enable-background:new    ;}
	.st1{fill:#68E1FD;}
	.st2{fill:url(#SVGID_1_);}
	.st3{opacity:0.3;fill:#68E1FD;enable-background:new    ;}
	.st4{opacity:0.51;fill:#68E1FD;enable-background:new    ;}
	.st5{fill:#FFFFFF;}
	.st6{fill:url(#SVGID_2_);}
	.st7{fill:url(#SVGID_3_);}
	.st8{fill:url(#SVGID_4_);}
	.st9{fill:none;stroke:#68E1FD;stroke-width:0.54;stroke-miterlimit:10;}
	.st10{fill:url(#SVGID_5_);}
	.st11{fill:url(#SVGID_6_);}
	.st12{fill:url(#SVGID_7_);}
	.st13{fill:url(#SVGID_8_);}
	.st14{fill:url(#SVGID_9_);}
	.st15{fill:url(#SVGID_10_);}
	.st16{fill:#606161;}
	.st17{fill:url(#SVGID_11_);}
	.st18{fill:url(#SVGID_12_);}
	.st19{fill:url(#SVGID_13_);}
	.st20{fill:url(#SVGID_14_);}
	.st21{fill:url(#SVGID_15_);}
	.st22{fill:url(#SVGID_16_);}
	.st23{fill:url(#SVGID_17_);}
	.st24{fill:url(#SVGID_18_);}
	.st25{fill:url(#SVGID_19_);}
	.st26{fill:url(#SVGID_20_);}
	.st27{fill:url(#SVGID_21_);}
	.st28{fill:url(#SVGID_22_);}
	.st29{fill:url(#SVGID_23_);}
	.st30{fill:url(#SVGID_24_);}
	.st31{fill:url(#SVGID_25_);}
	.st32{fill:url(#SVGID_26_);}
	.st33{fill:url(#SVGID_27_);}
	.st34{fill:url(#SVGID_28_);}
</style><title>#232_designer_Monochromatic</title><g><path class="st0" d="M313.1,108.8c-0.4,12.9-5.5,25.1-11.4,36.5c-9.9,19.4-22.4,38-28.1,59.1c-2.5,9.2-1.2,18.9-2.1,27.9
		c-0.7,7.6-3,14.7-10.3,20.6c-7.8,6.2-18.5,6.9-28.5,7c-21.7,0.1-44.2-1.5-64.2,6.8c-5.9,2.5-11.5,5.7-17.6,7.8
		c-11.8,4-24.7,3.3-37.2,2.5c-12.2-0.8-24.5-1.6-36.1-5.5s-22.5-11.2-27.8-22.1c-2.6-5.3-3.8-11.2-5.5-16.9
		c-0.7-2.6-1.7-5.1-2.9-7.5c-7.8-15.8-26.6-23.7-35.3-39c-6-10.6-6.4-23.3-5.9-35.4c0.5-12.8,1.9-25.8,7.6-37.3
		c5.8-11.9,15.8-21.3,26.4-29.5c19.2-14.9,40.9-26.2,61.3-39.5c15.4-10.1,30.1-21.3,46.4-30.1s34.4-15,52.9-14.1
		c26.9,1.3,50.6,17.4,71.4,34.2c11.9,9.6,23.5,19.8,32.4,32.1S313.6,93.6,313.1,108.8z"></path><path class="st0" d="M271.5,232.3c-0.7,7.6-3,14.7-10.3,20.6c-7.8,6.2-18.5,6.9-28.5,7c-21.7,0.1-44.2-1.5-64.2,6.8
		c-5.9,2.5-11.5,5.7-17.6,7.8c-11.8,4-24.7,3.3-37.2,2.5c-12.2-0.8-24.5-1.6-36.1-5.5s-22.5-11.2-27.8-22.1
		c-2.6-5.3-3.8-11.2-5.5-16.9c32.4-8.1,67.9,4.9,100.2-4.1c7.6-2.1,14.8-5.4,22.4-7.3c19.9-4.8,36.5,2.6,55.8,4.8
		c16.1,1.8,30.5-0.5,46.4,5.5C270,231.7,270.7,232,271.5,232.3z"></path></g><g><rect class="st1" x="6.3" y="13.9" width="109.3" height="147.1"></rect><g><linearGradient id="SVGID_1_" gradientUnits="userSpaceOnUse" x1="409.5238" y1="-73.3275" x2="797.7838" y2="126.8625" gradientTransform="matrix(1 0 0 1 -529.21 67.64)"><stop offset="0" style="stop-color: rgb(255, 255, 255); stop-opacity: 0;"></stop><stop offset="7.000000e-02" style="stop-color: rgb(255, 255, 255); stop-opacity: 0.22;"></stop><stop offset="0.16" style="stop-color: rgb(255, 255, 255); stop-opacity: 0.45;"></stop><stop offset="0.25" style="stop-color: rgb(255, 255, 255); stop-opacity: 0.65;"></stop><stop offset="0.33" style="stop-color: rgb(255, 255, 255); stop-opacity: 0.8;"></stop><stop offset="0.4" style="stop-color: rgb(255, 255, 255); stop-opacity: 0.91;"></stop><stop offset="0.46" style="stop-color: rgb(255, 255, 255); stop-opacity: 0.98;"></stop><stop offset="0.51" style="stop-color: rgb(255, 255, 255);"></stop></linearGradient><rect class="st2" x="6.3" y="13.9" width="109.3" height="147.1"></rect><ellipse class="st3" cx="76.1" cy="81.7" rx="28.7" ry="28.4"></ellipse><ellipse class="st4" cx="62.3" cy="48.3" rx="28.7" ry="28.4"></ellipse><ellipse class="st4" cx="42.9" cy="83.5" rx="28.7" ry="28.4"></ellipse><polygon class="st5" points="53.5,82.8 54,92.8 56.5,89.1 59.8,93.9 61.7,92.5 58,88.1 62.3,87.4 		"></polygon><rect class="st4" x="20.7" y="126.7" width="51.2" height="4.8"></rect><rect class="st4" x="20.7" y="131.3" width="51.2" height="4.8"></rect></g></g><rect class="st4" x="20.7" y="131.3" width="51.2" height="4.8"></rect><g><rect class="st1" x="218.4" y="152.2" width="10.8" height="89.2"></rect><linearGradient id="SVGID_2_" gradientUnits="userSpaceOnUse" x1="753.3019" y1="120.6304" x2="754.3019" y2="27.7704" gradientTransform="matrix(1 0 0 1 -529.21 67.64)"><stop offset="0" style="stop-color: rgb(1, 1, 1); stop-opacity: 0;"></stop><stop offset="0.95" style="stop-color: rgb(1, 1, 1);"></stop></linearGradient><rect class="st6" x="218.6" y="152.2" width="10.8" height="89.2"></rect><path class="st1" d="M96,170.4h18.4c14.6-0.1,26.5,11.6,26.6,26.2l0,0v57.3H69.5v-57.3C69.6,182.1,81.4,170.3,96,170.4z"></path><linearGradient id="SVGID_3_" gradientUnits="userSpaceOnUse" x1="634.9249" y1="172.9042" x2="683.625" y2="52.9642" gradientTransform="matrix(1 0 0 1 -536.05 65.63)"><stop offset="0" style="stop-color: rgb(1, 1, 1); stop-opacity: 0;"></stop><stop offset="0.95" style="stop-color: rgb(1, 1, 1);"></stop></linearGradient><path class="st7" d="M141,196.7v57.2H69.5v-57.2c0-2,0.2-3.9,0.7-5.8c2.8-12,13.6-20.5,25.9-20.5h18.4
		C129,170.4,140.9,182.1,141,196.7z"></path><linearGradient id="SVGID_4_" gradientUnits="userSpaceOnUse" x1="625.7582" y1="167.2915" x2="755.9583" y2="-3.0785" gradientTransform="matrix(1 0 0 1 -536.05 65.63)"><stop offset="0" style="stop-color: rgb(1, 1, 1); stop-opacity: 0;"></stop><stop offset="0.95" style="stop-color: rgb(1, 1, 1);"></stop></linearGradient><path class="st8" d="M141,196.7v18.7l-0.4,0.6l-7.5-20.1c-3.8,7-4.6,15.2-4.1,23s2.4,15.6,3.7,23.4c0.5,1.8,0.4,3.6-0.1,5.4
		c-1.5,3.5-6.6,4.2-9.8,2.1s-4.7-5.8-5.5-9.5c-2.3-10.6,0.1-21.5-0.6-32.2c-0.3-3.8-1-7.7-3.3-10.7c-3.3-4.3-9.1-5.8-14.4-6.9
		c-7.6-1.7-15.9-3.3-22.7,0.4c-1,0.7-2.2,1.1-3.4,1.3c-1,0-2-0.4-2.6-1.2c2.8-12,13.6-20.5,25.9-20.5h18.4
		C129.1,170.4,140.9,182.1,141,196.7C141,196.6,141,196.7,141,196.7L141,196.7z"></path><path class="st9" d="M97.7,95.8c-1,3-0.7,6.2-0.3,9.4c0.1,0.6,0.3,1.3,0.9,1.4c0.2,0,0.4-0.1,0.6-0.2c0.9-0.5,1.7-1.1,2.3-1.9
		c0.3-0.5,0.7-0.8,1.2-1.1c1.2-0.5,2.4,0.5,3.6,1c1,0.5,2.1,0.6,3.2,0.4c0.3,0,0.6-0.2,0.7-0.4c0-0.1,0-0.3-0.1-0.4
		c-0.6-1.6-2.1-2.6-3.1-3.9c-0.9-1.4-1.4-3-1.5-4.6c-0.1-1.3,0.4-3.5-0.7-4.4C101.8,88.8,98.3,93.9,97.7,95.8z"></path><path class="st1" d="M113.9,95c0.9,0.8,7.5,6.6,8.1,7.7c1,1.8,1.9,3.8,2.5,5.8c0.6,2.3,1,4.6,1.2,6.9l1.1,9.7c0,1,0.3,2,0.8,2.8
		c0.7,0.8,1.5,1.4,2.4,1.9c5.4,2.8,11,5.3,16.7,7.4c0.1,1.9,0,3.9-0.3,5.8c0,0.2-0.1,0.4-0.2,0.5c-0.2,0.1-0.3,0.1-0.5,0
		c-9-1.6-17.5-5.4-26.5-6.9c-0.5,0-1.1-0.2-1.5-0.5s-0.7-0.8-0.8-1.3c-0.8-1.7-1.4-3.4-2-5.2c-0.8-2.6-1.4-5.2-2.1-7.8
		c-0.5-1.6-1-3.1-1.4-4.7c-0.4-2.4-0.5-4.9-0.2-7.4c0-1.6,0.2-3.2,0.6-4.7C112.6,101.7,110.4,91.5,113.9,95z"></path><linearGradient id="SVGID_5_" gradientUnits="userSpaceOnUse" x1="664.6718" y1="57.8625" x2="613.7318" y2="84.7024" gradientTransform="matrix(1 0 0 1 -536.05 65.63)"><stop offset="0" style="stop-color: rgb(1, 1, 1); stop-opacity: 0;"></stop><stop offset="0.95" style="stop-color: rgb(1, 1, 1);"></stop></linearGradient><path class="st10" d="M119.4,103.4c0.9,0.8,2-1.8,2.6-0.7c1,1.8,1.9,3.8,2.5,5.8c0.6,2.3,1,4.6,1.2,6.9l1.1,9.7c0,1,0.3,2,0.8,2.8
		c0.7,0.8,1.5,1.4,2.4,1.9c5.4,2.8,11,5.3,16.7,7.4c0.1,1.9,0,3.9-0.3,5.8c0,0.2-0.1,0.4-0.2,0.5c-0.2,0.1-0.3,0.1-0.5,0
		c-9-1.6-17.5-5.4-26.5-6.9c-0.5,0-1.1-0.2-1.5-0.5s-0.7-0.8-0.8-1.3c-0.8-1.7-1.4-3.4-2-5.2c-0.8-2.6-1.4-5.2-2.1-7.8
		c-0.5-1.6-1-3.1-1.4-4.7c-0.4-2.4-0.5-4.9-0.2-7.4c0-1.6,0.2-3.2,0.6-4.7C112.6,101.7,115.9,100,119.4,103.4z"></path><path class="st1" d="M122.7,110.3l0.5,14c0.1,3.7,0,8-3,10.4c-1.9,1.6-4.8,1.9-6.3,3.9c-0.9,1.3-1.4,2.9-1.2,4.5
		c0.2,3.2,1.1,6.3,2.5,9.2c0.4,0.7,0.6,1.6,0.5,2.4c-0.2,1.6-1.8,2.6-3.2,3.3c-7,3.1-14.7,4.1-22.2,2.6c-3.8-0.7-7.4-2-10.7-3.9
		c-0.4-0.2-0.7-0.4-0.9-0.8c-0.2-0.4-0.2-0.9,0-1.3c1.5-4.9,4.3-9.4,5.4-14.4s0.5-9.9,0.7-14.9c0.2-5,1.3-9.9,3.1-14.6
		c1-2.9,2.6-5.5,4.7-7.7c3.8-3.6,9.3-4.8,14.5-5.3c1.4-0.2,2.8-0.2,4.2,0.1c1.7,0.5,3.4,1.3,4.9,2.2c1.3,0.7,3.1,0.8,4.3,1.5
		C123.1,103.1,122.6,107.7,122.7,110.3z"></path><linearGradient id="SVGID_6_" gradientUnits="userSpaceOnUse" x1="646.068" y1="64.9436" x2="555.088" y2="51.5036" gradientTransform="matrix(1 0 0 1 -536.05 65.63)"><stop offset="0" style="stop-color: rgb(1, 1, 1); stop-opacity: 0;"></stop><stop offset="0.95" style="stop-color: rgb(1, 1, 1);"></stop></linearGradient><path class="st11" d="M122.7,110.3l0.5,14c0.1,3.7,0,8-3,10.4c-1.9,1.6-4.8,1.9-6.3,3.9c-0.9,1.3-1.4,2.9-1.2,4.5
		c0.2,3.2,1.1,6.3,2.5,9.2c0.4,0.7,0.6,1.6,0.5,2.4c-0.2,1.6-1.8,2.6-3.2,3.3c-7,3.1-14.7,4.1-22.2,2.6c-3.8-0.7-7.4-2-10.7-3.9
		c-0.4-0.2-0.7-0.4-0.9-0.8c-0.2-0.4-0.2-0.9,0-1.3c1.5-4.9,4.3-9.4,5.4-14.4s0.5-9.9,0.7-14.9c0.2-5,1.3-9.9,3.1-14.6
		c1-2.9,2.6-5.5,4.7-7.7c3.8-3.6,9.3-4.8,14.5-5.3c1.4-0.2,2.8-0.2,4.2,0.1c1.7,0.5,3.4,1.3,4.9,2.2c1.3,0.7,3.1,0.8,4.3,1.5
		C123.1,103.1,122.6,107.7,122.7,110.3z"></path><linearGradient id="SVGID_7_" gradientUnits="userSpaceOnUse" x1="532.0797" y1="917.8025" x2="543.2396" y2="917.8025" gradientTransform="matrix(0.882 -0.4712 0.4712 0.882 -797.3298 -462.3667)"><stop offset="0" style="stop-color: rgb(228, 197, 213);"></stop><stop offset="0.42" style="stop-color: rgb(233, 211, 207);"></stop><stop offset="1" style="stop-color: rgb(239, 232, 202);"></stop></linearGradient><path class="st12" d="M105.8,85c-0.5,2.2-0.8,4.5-1,6.8c-0.3,2.1,0.1,4.3,1,6.2c0.6,1,1.4,1.9,2.4,2.6c1.1,0.9,2.3,1.5,3.7,1.7
		c1.4,0.2,2.8-0.4,3.6-1.6c0.5-1.1,0.6-2.4,0.2-3.6l-0.6-3.7c-0.2-1.4-0.6-2.7-1.2-4c-1.4-2.2-4-3.2-6.5-4"></path><linearGradient id="SVGID_8_" gradientUnits="userSpaceOnUse" x1="639.5887" y1="38.0805" x2="692.4688" y2="-36.4395" gradientTransform="matrix(1 0 0 1 -536.05 65.63)"><stop offset="0" style="stop-color: rgb(1, 1, 1); stop-opacity: 0;"></stop><stop offset="0.95" style="stop-color: rgb(1, 1, 1);"></stop></linearGradient><path class="st13" d="M112.7,100c0.4,0.4,0.9,0.7,1.4,0.8c0.5,0.2,1.1,0,1.5-0.4c0.2-0.3,0.3-0.7,0.3-1.1c0.1-1.3,0.1-2.6,0.1-3.9
		c0.1-1,0-2.1-0.2-3.1c-0.5-1.6-1.4-3-2.6-4.2c-1.1-1.2-3.2-3.6-5.1-3.5c-2.1,0.1-1.4,3.1-1.2,4.5C107.4,93.3,109.5,97.2,112.7,100z
		"></path><path class="st1" d="M88.6,102.3c-0.9,2.1-1.6,4.3-2.2,6.6c-0.7,2.4-1.6,4.8-2.1,7.2c-0.6,3-1,6.1-1.1,9.2
		c-0.2,3.2-0.4,6.4-0.4,9.6c0,2.4,0.2,5,1.9,6.7c1.3,1.3,3.3,1.7,5.1,2.1c6.6,1.2,13.4,2,20.1,2.3c0.5,0.1,1,0,1.4-0.3
		c0.3-0.3,0.4-0.6,0.4-1c0.3-1.6,0.4-3.3,0.3-4.9l-16.7-5.1c-0.3-8.7,3.8-16.9,5-25.5c0.2-1.8,0.4-3.6,0.8-5.3
		c0.5-1.8,1.2-3.4,1.7-5.2c0.3-1.4,0.8-4.4-1-5c-1.4-0.5-3.8,0.6-5,1.1C93.2,96.2,90.3,98.9,88.6,102.3z"></path><linearGradient id="SVGID_9_" gradientUnits="userSpaceOnUse" x1="645.97" y1="78.2781" x2="673.5544" y2="78.2781" gradientTransform="matrix(1 0 0 1 -536.05 65.63)"><stop offset="0" style="stop-color: rgb(228, 197, 213);"></stop><stop offset="0.42" style="stop-color: rgb(233, 211, 207);"></stop><stop offset="1" style="stop-color: rgb(239, 232, 202);"></stop></linearGradient><path class="st14" d="M122,140.4c2.5-0.4,5.1-0.6,7.6-0.5c2.6,0,5.1,1,6.9,2.8c0.6,0.5,1,1.2,1.1,2s-0.2,1.6-0.9,2
		c-0.8,0.5-1.8,0.2-2.7,0.2c-2.2,0-4.3,1.5-6.3,0.9c-1.3-0.4-2.3-1.5-3.7-1.5c-0.9,0.1-1.8,0.5-2.5,1.1c-0.8,0.4-1.8,0.5-2.7,0.2
		c-1-0.4-2-0.8-3-1.4c-1.3-0.6-2.6-0.9-4-1c-0.5,0-1,0-1.3-0.4c-0.2-0.3-0.4-0.6-0.4-1c-0.1-0.7-0.1-1.5,0.1-2.2s0.9-1.2,1.6-1.3
		c0.3,0,0.6,0.1,0.9,0.1c1.1,0.2,2.2,0.2,3.3,0.2c1,0,1.9-0.2,2.9-0.2C119.9,140.5,120.9,140.5,122,140.4z"></path><linearGradient id="SVGID_10_" gradientUnits="userSpaceOnUse" x1="680.8875" y1="78.1401" x2="710.7875" y2="78.1401" gradientTransform="matrix(1 0 0 1 -536.05 65.63)"><stop offset="0" style="stop-color: rgb(228, 197, 213);"></stop><stop offset="0.42" style="stop-color: rgb(233, 211, 207);"></stop><stop offset="1" style="stop-color: rgb(239, 232, 202);"></stop></linearGradient><path class="st15" d="M160.3,138.9c2.1,0,4.2,0.1,6.3,0.3c1.7,0.1,3.4,0.6,4.9,1.3c1.5,0.8,2.7,2.1,3.3,3.7
		c-2.5,1.3-5.9-0.1-8.2,1.5c-0.5,0.4-0.9,0.8-1.4,1.2c-1.9,1.6-4.5,1.9-7,1.9c-2,0.1-4-0.2-5.9-0.9c-1.8-0.8-9.6-6.7-6.9-8.6
		c1.5-1,4.8-0.4,6.4-0.4H160.3z"></path><path class="st16" d="M174.5,244.1c0,0.4-0.2,0.8-0.5,1c-5,5.2-13.5,5-20.2,2.3c-1.2-0.4-2.3-1.1-3.1-2.1c-0.7-1.2-1.1-2.6-1-4
		c-0.5-12.4-0.6-24.8-2.8-37c-0.7-4.1-1.7-8.2-2.2-12.3c-0.7-5.9-0.4-12-0.6-18c0-0.4-0.1-0.9-0.4-1.2c-0.3-0.3-0.8-0.4-1.2-0.3
		l-5.4-0.1c0,12.6-0.9,24.6-0.6,37.1c0.1,7.2-1.4,14.4-1.8,21.6c-0.1,1.3-0.1,2.5,0.1,3.8c0.9,4,4.5,6.7,6.7,10.1
		c0.6,0.8,0.9,1.9,0.9,2.9c-0.3,1.7-1.5,3-3.2,3.3c-1.6,0.3-3.3,0.2-4.9-0.4c-1.2-0.3-2.4-0.7-3.4-1.4c-0.8-0.6-1.6-1.3-2.2-2.1
		c-1.3-1.5-2.6-3-3.8-4.5c-0.5-0.5-0.9-1.2-1.1-1.9c-0.6-1.9,0.6-3.9,1.4-5.7c1.8-4,2.2-8.5,1.1-12.8c-0.9-3.1-1.4-6.3-1.5-9.6
		c-0.1-10.8-0.2-21.6-0.5-32.3c-8.2,1.1-16.5,1.3-24.7,0.7c-5.6-0.4-11.5-1.3-15.5-5.1c-4.4-4.1-5.5-10.4-5.6-16.3
		c-0.2-2.1,0.1-4.2,1.1-6.1c8-0.1,18.9,0.8,27,0.7c1.8-0.1,3.7,0,5.5,0.4c0.8,0.1,1.6,0.1,2.4,0.1c7,0.1,13.9,0.8,20.8,2h0.1
		c5.2,0.9,10.2,2.6,14.8,5.2c0.4,0.2,0.7,0.4,1.1,0.7c0.7,0.5,1.4,1,2.1,1.6l0.1,0.1c2.7,2.3,4.4,5.6,4.8,9.2
		c0.1,0.6,0.1,1.4,0.2,2.2c0.1,0.9,0.1,1.9,0.1,2.8v1.2c0.1,10.7-0.8,28.7,0.2,42.8c0.4,6.2,1.8,13.2,7.2,16.6
		c2.6,1.6,5.8,2.2,8.2,4.1C174.3,243.6,174.4,243.8,174.5,244.1z"></path><linearGradient id="SVGID_11_" gradientUnits="userSpaceOnUse" x1="683.4401" y1="106.0524" x2="629.7501" y2="178.4524" gradientTransform="matrix(1 0 0 1 -536.05 65.63)"><stop offset="0" style="stop-color: rgb(1, 1, 1); stop-opacity: 0;"></stop><stop offset="0.95" style="stop-color: rgb(1, 1, 1);"></stop></linearGradient><path class="st17" d="M174.5,244.1c0,0.4-0.2,0.8-0.5,1c-5,5.2-13.5,5-20.2,2.3c-1.2-0.4-2.3-1.1-3.1-2.1c-0.7-1.2-1.1-2.6-1-4
		c-0.5-12.4-0.6-24.8-2.8-37c-0.7-4.1-1.7-8.2-2.2-12.3c-0.7-5.9-0.4-12-0.6-18c0-0.4-0.1-0.9-0.4-1.2c-0.3-0.3-0.8-0.4-1.2-0.3
		l-5.4-0.1c0,12.6-0.9,24.6-0.6,37.1c0.1,7.2-1.4,14.4-1.8,21.6c-0.1,1.3-0.1,2.5,0.1,3.8c0.9,4,4.5,6.7,6.7,10.1
		c0.6,0.8,0.9,1.9,0.9,2.9c-0.3,1.7-1.5,3-3.2,3.3c-1.6,0.3-3.3,0.2-4.9-0.4c-1.2-0.3-2.4-0.7-3.4-1.4c-0.8-0.6-1.6-1.3-2.2-2.1
		c-1.3-1.5-2.6-3-3.8-4.5c-0.5-0.5-0.9-1.2-1.1-1.9c-0.6-1.9,0.6-3.9,1.4-5.7c1.8-4,2.2-8.5,1.1-12.8c-0.9-3.1-1.4-6.3-1.5-9.6
		c-0.1-10.8-0.2-21.6-0.5-32.3c-8.2,1.1-16.5,1.3-24.7,0.7c-5.6-0.4-11.5-1.3-15.5-5.1c-4.4-4.1-5.5-10.4-5.6-16.3
		c-0.2-2.1,0.1-4.2,1.1-6.1c8-0.1,18.9,0.8,27,0.7c1.8-0.1,3.7,0,5.5,0.4c0.8,0.1,1.6,0.1,2.4,0.1c7,0.1,13.9,0.8,20.8,2h0.1
		c5.2,0.9,10.2,2.6,14.8,5.2c0.4,0.2,0.7,0.4,1.1,0.7c0.7,0.5,1.4,1,2.1,1.6l0.1,0.1c2.7,2.3,4.4,5.6,4.8,9.2
		c0.1,0.6,0.1,1.4,0.2,2.2c0.1,0.9,0.1,1.9,0.1,2.8v1.2c0.1,10.7-0.8,28.7,0.2,42.8c0.4,6.2,1.8,13.2,7.2,16.6
		c2.6,1.6,5.8,2.2,8.2,4.1C174.3,243.6,174.4,243.8,174.5,244.1z"></path><linearGradient id="SVGID_12_" gradientUnits="userSpaceOnUse" x1="699.0941" y1="143.8304" x2="627.7741" y2="113.1704" gradientTransform="matrix(1 0 0 1 -536.05 65.63)"><stop offset="0" style="stop-color: rgb(1, 1, 1); stop-opacity: 0;"></stop><stop offset="0.95" style="stop-color: rgb(1, 1, 1);"></stop></linearGradient><path class="st18" d="M174.5,244.1c0,0.4-0.2,0.8-0.5,1c-5,5.2-13.5,5-20.2,2.3c-1.2-0.4-2.3-1.1-3.1-2.1c-0.7-1.2-1.1-2.6-1-4
		c-0.5-12.4-0.6-24.8-2.8-37c-0.7-4.1-1.7-8.2-2.2-12.3c-0.7-5.9-0.4-12-0.6-18c0-0.4-0.1-0.9-0.4-1.2c-0.3-0.3-0.8-0.4-1.2-0.3
		l-5.4-0.1c0,0,0.1-3.7-1.2-5.4s-25.8-9.2-25.8-9.2s-1.6-2,4.2-3l1.3-0.2c3.6-0.4,11.6,0.4,19.4,2.2h0.1c5.1,1.1,10.1,2.8,14.8,5.2
		c0.4,0.2,0.7,0.4,1.1,0.7c0.7,0.5,1.4,1,2.1,1.6l0.1,0.1c0.4,0.4,0.7,0.8,1,1.2c2.2,3,3.5,6.5,4,10.2c0.1,0.9,0.1,1.9,0.1,2.8
		c0,0.3,0,0.5-0.1,0.8l0.1,0.3c0.1,10.7-0.8,28.7,0.2,42.8c0.4,6.2,1.8,13.2,7.2,16.6c2.6,1.6,5.8,2.2,8.2,4.1
		C174.2,243.6,174.5,243.8,174.5,244.1z"></path><rect class="st1" x="118.8" y="152.2" width="10.8" height="106.5"></rect><rect class="st1" x="131.2" y="153.1" width="42.9" height="7.8"></rect><linearGradient id="SVGID_13_" gradientUnits="userSpaceOnUse" x1="681.3883" y1="77.2683" x2="682.2883" y2="96.6183" gradientTransform="matrix(1 0 0 1 -529.21 67.64)"><stop offset="0" style="stop-color: rgb(1, 1, 1); stop-opacity: 0;"></stop><stop offset="0.95" style="stop-color: rgb(1, 1, 1);"></stop></linearGradient><rect class="st19" x="131.2" y="153.1" width="42.9" height="3.9"></rect><linearGradient id="SVGID_14_" gradientUnits="userSpaceOnUse" x1="638.35" y1="15.1823" x2="671.0586" y2="15.1823" gradientTransform="matrix(1 0 0 1 -536.05 65.63)"><stop offset="0" style="stop-color: rgb(228, 197, 213);"></stop><stop offset="0.42" style="stop-color: rgb(233, 211, 207);"></stop><stop offset="1" style="stop-color: rgb(239, 232, 202);"></stop></linearGradient><path class="st20" d="M123.7,97c-0.8,0.9-1.9,1.6-3.1,1.9c-1.9,0.4-3.8-0.8-5.2-2c-3.6-3-6.5-6.9-8.4-11.2
		c-0.5-1.3-1.1-2.6-1.8-3.8c-1-1.3-1.8-2.7-2.5-4.2c-0.5-1.5-0.3-5.2,1.2-5.9c0.5-0.2,0.9-0.3,1.4-0.4c1.8-0.6,3.1-0.4,4.2-1.8
		c2.6-3.2,5.8-6.4,9.9-6.9c2.7-0.3,5.4,0.7,8,1.8c2.6,1.1,6,3,7.2,5.5s0.2,6.3-0.4,8.9C132.5,85.8,128.9,92.1,123.7,97z"></path><path class="st16" d="M122.4,67.9c0.1,1.7,2,2.7,3.6,3s3.6,0.3,4.9,1.4c1,0.8,1.6,2.3,3,2.5c0.6,0,1.2-0.2,1.7-0.5
		c1.9-1.4,2.9-3.8,2.4-6.2c-0.5-2.3-1.6-4.5-3.2-6.2c-5.3-6.5-13.5-9.9-21.9-9.2c-8.2,0.8-15.9,6.6-18.3,14.4
		c-1.3,4.1-1.2,8.6-2.1,12.8c-1,4.8-3.2,9.3-6.5,13c-3.4,3.9-8.1,7.2-9,12.2c-0.4,3.3,0.4,6.6,2.4,9.3c2,2.6,4.3,5,6.9,7.1
		c2.5-4.1,7.9-5.3,11.9-8c4.9-3.4,7.6-9.2,7-15.1c-0.4-2.4-0.4-4.9,0-7.3c0.2-2.2,1.8-3.2,1.6-5.4c-0.2-1.4-3.2-7-3.6-8.3
		c-0.6-2.2,0-5.4,2.9-5.4c2.4,0,3.9,3.1,4.6,5C113.1,76.2,122.5,70.8,122.4,67.9z"></path><linearGradient id="SVGID_15_" gradientUnits="userSpaceOnUse" x1="628.2032" y1="17.7806" x2="661.6332" y2="29.1906" gradientTransform="matrix(1 0 0 1 -536.05 65.63)"><stop offset="0" style="stop-color: rgb(1, 1, 1); stop-opacity: 0;"></stop><stop offset="0.95" style="stop-color: rgb(1, 1, 1);"></stop></linearGradient><path class="st21" d="M122.4,67.9c0.1,1.7,2,2.7,3.6,3s3.6,0.3,4.9,1.4c1,0.8,1.6,2.3,3,2.5c0.6,0,1.2-0.2,1.7-0.5
		c1.9-1.4,2.9-3.8,2.4-6.2c-0.5-2.3-1.6-4.5-3.2-6.2c-5.3-6.5-13.5-9.9-21.9-9.2c-8.2,0.8-15.9,6.6-18.3,14.4
		c-1.3,4.1-1.2,8.6-2.1,12.8c-1,4.8-3.2,9.3-6.5,13c-3.4,3.9-8.1,7.2-9,12.2c-0.4,3.3,0.4,6.6,2.4,9.3c2,2.6,4.3,5,6.9,7.1
		c2.5-4.1,7.9-5.3,11.9-8c4.9-3.4,7.6-9.2,7-15.1c-0.4-2.4-0.4-4.9,0-7.3c0.2-2.2,1.8-3.2,1.6-5.4c-0.2-1.4-3.2-7-3.6-8.3
		c-0.6-2.2,0-5.4,2.9-5.4c2.4,0,3.9,3.1,4.6,5C113.1,76.2,122.5,70.8,122.4,67.9z"></path><rect class="st1" x="115.2" y="152.2" width="10.8" height="106.5"></rect><linearGradient id="SVGID_16_" gradientUnits="userSpaceOnUse" x1="618.2489" y1="158.6088" x2="775.669" y2="54.8688" gradientTransform="matrix(1 0 0 1 -529.21 67.64)"><stop offset="0" style="stop-color: rgb(1, 1, 1); stop-opacity: 0;"></stop><stop offset="0.95" style="stop-color: rgb(1, 1, 1);"></stop></linearGradient><rect class="st22" x="115.2" y="152.2" width="10.8" height="106.5"></rect><polygon class="st1" points="124.9,140 121.2,128.2 122.4,127.5 126.6,140.1 	"></polygon><linearGradient id="SVGID_17_" gradientUnits="userSpaceOnUse" x1="650.37" y1="66.16" x2="655.75" y2="66.16" gradientTransform="matrix(1 0 0 1 -529.21 67.64)"><stop offset="0" style="stop-color: rgb(1, 1, 1); stop-opacity: 0;"></stop><stop offset="0.95" style="stop-color: rgb(1, 1, 1);"></stop></linearGradient><polygon class="st23" points="124.9,140 121.2,128.2 122.4,127.5 126.6,140.1 	"></polygon><g><rect class="st1" x="94.7" y="145.9" width="145.9" height="7.6"></rect><linearGradient id="SVGID_18_" gradientUnits="userSpaceOnUse" x1="696.7302" y1="76.2285" x2="697.41" y2="93.6685" gradientTransform="matrix(1 0 0 1 -529.21 67.64)"><stop offset="0" style="stop-color: rgb(1, 1, 1); stop-opacity: 0;"></stop><stop offset="0.95" style="stop-color: rgb(1, 1, 1);"></stop></linearGradient><rect class="st24" x="94.7" y="145.9" width="145.9" height="2.6"></rect></g></g><g><polygon class="st1" points="139.4,146 140,143.8 164.2,142.9 164.7,145.8 	"></polygon><linearGradient id="SVGID_19_" gradientUnits="userSpaceOnUse" x1="679.3842" y1="70.264" x2="685.8742" y2="96.394" gradientTransform="matrix(1 0 0 1 -529.21 67.64)"><stop offset="0" style="stop-color: rgb(1, 1, 1); stop-opacity: 0;"></stop><stop offset="0.95" style="stop-color: rgb(1, 1, 1);"></stop></linearGradient><polygon class="st25" points="139.4,146 140,143.8 164.2,142.9 164.7,145.8 	"></polygon><polygon class="st1" points="210.6,133.5 142.6,133.5 151.7,85.6 219.7,85.6 	"></polygon><linearGradient id="SVGID_20_" gradientUnits="userSpaceOnUse" x1="707.5609" y1="25.493" x2="734.5208" y2="183.6131" gradientTransform="matrix(1 0 0 1 -529.21 67.64)"><stop offset="0" style="stop-color: rgb(1, 1, 1); stop-opacity: 0;"></stop><stop offset="0.95" style="stop-color: rgb(1, 1, 1);"></stop></linearGradient><polygon class="st26" points="219.7,85.6 210.6,133.5 142.6,133.5 151.7,85.6 	"></polygon><linearGradient id="SVGID_21_" gradientUnits="userSpaceOnUse" x1="708.986" y1="25.6339" x2="735.716" y2="182.4639" gradientTransform="matrix(1 0 0 1 -529.21 67.64)"><stop offset="0" style="stop-color: rgb(1, 1, 1); stop-opacity: 0;"></stop><stop offset="0.95" style="stop-color: rgb(1, 1, 1);"></stop></linearGradient><polygon class="st27" points="219.7,85.6 210.6,133.5 145.4,133.5 154.5,85.6 	"></polygon><polygon class="st1" points="175,111.6 183.2,143.1 164.7,143.1 162.2,145.8 196.1,145.8 185.7,108.8 176.4,108.5 	"></polygon><linearGradient id="SVGID_22_" gradientUnits="userSpaceOnUse" x1="696.5137" y1="56.5535" x2="751.7337" y2="82.3635" gradientTransform="matrix(1 0 0 1 -529.21 67.64)"><stop offset="0" style="stop-color: rgb(1, 1, 1); stop-opacity: 0;"></stop><stop offset="0.95" style="stop-color: rgb(1, 1, 1);"></stop></linearGradient><polygon class="st28" points="175,111.6 183.2,143.1 164.7,143.1 162.2,145.8 196.1,145.8 185.7,108.8 176.4,108.5 	"></polygon><polygon class="st1" points="176.4,108.5 185.7,143.1 164.7,143.1 164.7,145.8 198.5,145.8 188.2,108.8 	"></polygon></g><g><rect class="st5" x="177" y="43" width="85" height="25.9"></rect><g><rect class="st1" x="182.3" y="51.9" width="74.4" height="14.5"></rect><linearGradient id="SVGID_23_" gradientUnits="userSpaceOnUse" x1="139.0009" y1="59.4159" x2="208.0291" y2="58.935"><stop offset="0" style="stop-color: rgb(1, 1, 1); stop-opacity: 0;"></stop><stop offset="0.36" style="stop-color: rgb(1, 1, 1); stop-opacity: 0.36;"></stop><stop offset="0.95" style="stop-color: rgb(1, 1, 1);"></stop></linearGradient><rect class="st29" x="182.3" y="51.9" width="10.6" height="14.5"></rect><linearGradient id="SVGID_24_" gradientUnits="userSpaceOnUse" x1="163.782" y1="60.0773" x2="267.396" y2="57.074"><stop offset="0" style="stop-color: rgb(1, 1, 1); stop-opacity: 0;"></stop><stop offset="0.36" style="stop-color: rgb(1, 1, 1); stop-opacity: 0.36;"></stop><stop offset="0.95" style="stop-color: rgb(1, 1, 1);"></stop></linearGradient><rect class="st30" x="193" y="51.9" width="10.6" height="14.5"></rect><linearGradient id="SVGID_25_" gradientUnits="userSpaceOnUse" x1="182.9214" y1="59.2897" x2="298.1732" y2="58.3512"><stop offset="0" style="stop-color: rgb(1, 1, 1); stop-opacity: 0;"></stop><stop offset="0.36" style="stop-color: rgb(1, 1, 1); stop-opacity: 0.36;"></stop><stop offset="0.95" style="stop-color: rgb(1, 1, 1);"></stop></linearGradient><rect class="st31" x="203.7" y="51.9" width="10.6" height="14.5"></rect><linearGradient id="SVGID_26_" gradientUnits="userSpaceOnUse" x1="236.8507" y1="58.9902" x2="52.3353" y2="59.9287"><stop offset="0" style="stop-color: rgb(1, 1, 1); stop-opacity: 0;"></stop><stop offset="0.36" style="stop-color: rgb(1, 1, 1); stop-opacity: 0.36;"></stop><stop offset="0.95" style="stop-color: rgb(1, 1, 1);"></stop></linearGradient><rect class="st32" x="214.4" y="51.9" width="10.6" height="14.5"></rect><linearGradient id="SVGID_27_" gradientUnits="userSpaceOnUse" x1="225.4193" y1="59.0019" x2="301.065" y2="59.3773"><stop offset="0" style="stop-color: rgb(255, 255, 255); stop-opacity: 0;"></stop><stop offset="0.5" style="stop-color: rgb(255, 255, 255);"></stop></linearGradient><rect class="st33" x="235.4" y="51.9" width="10.6" height="14.5"></rect><linearGradient id="SVGID_28_" gradientUnits="userSpaceOnUse" x1="223.7827" y1="59.2696" x2="292.8109" y2="58.7887"><stop offset="0" style="stop-color: rgb(255, 255, 255); stop-opacity: 0;"></stop><stop offset="0.5" style="stop-color: rgb(255, 255, 255);"></stop></linearGradient><rect class="st34" x="246.1" y="51.9" width="10.6" height="14.5"></rect></g></g></svg>